M48
; DRILL file {KiCad 6.0.6} date Sun 26 Jun 2022 18:27:41 CEST
; FORMAT={-:-/ absolute / inch / decimal}
; #@! TF.CreationDate,2022-06-26T18:27:41+02:00
; #@! TF.GenerationSoftware,Kicad,Pcbnew,6.0.6
; #@! TF.FileFunction,Plated,1,2,PTH
FMAT,2
INCH
; #@! TA.AperFunction,Plated,PTH,ViaDrill
T1C0.0157
; #@! TA.AperFunction,Plated,PTH,ComponentDrill
T2C0.0197
; #@! TA.AperFunction,Plated,PTH,ComponentDrill
T3C0.0315
; #@! TA.AperFunction,Plated,PTH,ComponentDrill
T4C0.0394
; #@! TA.AperFunction,Plated,PTH,ComponentDrill
T5C0.0472
; #@! TA.AperFunction,Plated,PTH,ComponentDrill
T6C0.1063
%
G90
G05
T1
X4.965Y-2.908
X5.15Y-2.96
X5.3967Y-3.68
X5.397Y-3.155
X5.4749Y-2.5544
X5.475Y-2.6048
X5.48Y-2.915
X5.53Y-2.605
X5.575Y-2.67
X5.575Y-2.76
X5.575Y-2.85
X5.5848Y-2.554
X5.585Y-2.6044
X5.668Y-2.6692
X5.6693Y-2.76
X5.6699Y-2.605
X5.67Y-2.5536
X5.67Y-2.8494
X5.755Y-3.0049
X5.755Y-3.055
X5.7648Y-2.67
X5.7648Y-2.76
X5.765Y-2.85
X5.815Y-2.955
X5.8617Y-3.055
X5.8626Y-2.955
X5.8633Y-2.905
X5.8643Y-2.5535
X5.9141Y-2.5535
X5.99Y-2.655
X5.99Y-2.775
X6.245Y-3.005
X6.475Y-3.075
X6.475Y-2.775
X6.475Y-2.875
T2
X5.0187Y-2.6973
X5.0187Y-4.1934
X5.0421Y-2.6409
X5.0421Y-2.7537
X5.0421Y-4.137
X5.0421Y-4.2498
X5.0984Y-2.6176
X5.0984Y-2.777
X5.0984Y-4.1137
X5.0984Y-4.2731
X5.1548Y-2.6409
X5.1548Y-2.7537
X5.1548Y-4.137
X5.1548Y-4.2498
X5.1781Y-2.6973
X5.1781Y-4.1934
X6.1604Y-2.6973
X6.1604Y-4.1934
X6.1838Y-2.6409
X6.1838Y-2.7537
X6.1838Y-4.137
X6.1838Y-4.2498
X6.2402Y-2.6176
X6.2402Y-2.777
X6.2402Y-4.1137
X6.2402Y-4.2731
X6.2965Y-2.6409
X6.2965Y-2.7537
X6.2965Y-4.137
X6.2965Y-4.2498
X6.3199Y-2.6973
X6.3199Y-4.1934
T3
X4.8195Y-2.8161
X4.8195Y-2.9499
T4
X4.78Y-3.986
X4.78Y-4.086
X4.78Y-4.186
T5
X5.16Y-3.3044
X5.16Y-3.4422
X5.16Y-3.58
X6.175Y-3.375
X6.175Y-3.5128
T6
X5.0984Y-2.6973
X5.0984Y-4.1934
X6.2402Y-2.6973
X6.2402Y-4.1934
T0
M30
