G04 #@! TF.GenerationSoftware,KiCad,Pcbnew,6.0.6*
G04 #@! TF.CreationDate,2022-06-26T18:27:28+02:00*
G04 #@! TF.ProjectId,Sunmachine-A3,53756e6d-6163-4686-996e-652d41332e6b,rev?*
G04 #@! TF.SameCoordinates,Original*
G04 #@! TF.FileFunction,Paste,Top*
G04 #@! TF.FilePolarity,Positive*
%FSLAX46Y46*%
G04 Gerber Fmt 4.6, Leading zero omitted, Abs format (unit mm)*
G04 Created by KiCad (PCBNEW 6.0.6) date 2022-06-26 18:27:28*
%MOMM*%
%LPD*%
G01*
G04 APERTURE LIST*
G04 Aperture macros list*
%AMRoundRect*
0 Rectangle with rounded corners*
0 $1 Rounding radius*
0 $2 $3 $4 $5 $6 $7 $8 $9 X,Y pos of 4 corners*
0 Add a 4 corners polygon primitive as box body*
4,1,4,$2,$3,$4,$5,$6,$7,$8,$9,$2,$3,0*
0 Add four circle primitives for the rounded corners*
1,1,$1+$1,$2,$3*
1,1,$1+$1,$4,$5*
1,1,$1+$1,$6,$7*
1,1,$1+$1,$8,$9*
0 Add four rect primitives between the rounded corners*
20,1,$1+$1,$2,$3,$4,$5,0*
20,1,$1+$1,$4,$5,$6,$7,0*
20,1,$1+$1,$6,$7,$8,$9,0*
20,1,$1+$1,$8,$9,$2,$3,0*%
G04 Aperture macros list end*
%ADD10RoundRect,0.250000X-0.412500X-0.650000X0.412500X-0.650000X0.412500X0.650000X-0.412500X0.650000X0*%
%ADD11RoundRect,0.250000X0.412500X0.650000X-0.412500X0.650000X-0.412500X-0.650000X0.412500X-0.650000X0*%
%ADD12RoundRect,0.250000X0.400000X0.625000X-0.400000X0.625000X-0.400000X-0.625000X0.400000X-0.625000X0*%
%ADD13R,0.650000X1.560000*%
%ADD14RoundRect,0.250000X-0.650000X0.412500X-0.650000X-0.412500X0.650000X-0.412500X0.650000X0.412500X0*%
%ADD15RoundRect,0.250001X0.462499X1.074999X-0.462499X1.074999X-0.462499X-1.074999X0.462499X-1.074999X0*%
%ADD16RoundRect,0.250001X-0.462499X-1.074999X0.462499X-1.074999X0.462499X1.074999X-0.462499X1.074999X0*%
%ADD17R,1.500000X2.000000*%
%ADD18R,3.800000X2.000000*%
%ADD19R,1.000000X1.800000*%
%ADD20R,0.600000X0.400000*%
%ADD21R,0.400000X0.600000*%
G04 APERTURE END LIST*
D10*
G04 #@! TO.C,C2*
X163283500Y-80772000D03*
X166408500Y-80772000D03*
G04 #@! TD*
D11*
G04 #@! TO.C,C3*
X133515500Y-79629000D03*
X130390500Y-79629000D03*
G04 #@! TD*
D12*
G04 #@! TO.C,R2*
X123978000Y-68072000D03*
X120878000Y-68072000D03*
G04 #@! TD*
D13*
G04 #@! TO.C,U3*
X129474000Y-73834000D03*
X128524000Y-73834000D03*
X127574000Y-73834000D03*
X127574000Y-76534000D03*
X129474000Y-76534000D03*
G04 #@! TD*
D14*
G04 #@! TO.C,C6*
X132410200Y-73621500D03*
X132410200Y-76746500D03*
G04 #@! TD*
D10*
G04 #@! TO.C,C7*
X135521300Y-78308200D03*
X138646300Y-78308200D03*
G04 #@! TD*
D11*
G04 #@! TO.C,C5*
X124117500Y-93582067D03*
X120992500Y-93582067D03*
G04 #@! TD*
D15*
G04 #@! TO.C,L2*
X137631500Y-72136000D03*
X134656500Y-72136000D03*
G04 #@! TD*
D10*
G04 #@! TO.C,C4*
X120865500Y-78459259D03*
X123990500Y-78459259D03*
G04 #@! TD*
D16*
G04 #@! TO.C,L1*
X134656500Y-75438000D03*
X137631500Y-75438000D03*
G04 #@! TD*
D17*
G04 #@! TO.C,U2*
X163241528Y-90653000D03*
D18*
X165541528Y-84353000D03*
D17*
X165541528Y-90653000D03*
X167841528Y-90653000D03*
G04 #@! TD*
D19*
G04 #@! TO.C,Y1*
X139466000Y-75869800D03*
X141966000Y-75869800D03*
G04 #@! TD*
D11*
G04 #@! TO.C,C1*
X167043500Y-94107000D03*
X163918500Y-94107000D03*
G04 #@! TD*
D20*
G04 #@! TO.C,U1*
X140367987Y-64652011D03*
X140367987Y-67472011D03*
X140367987Y-68212011D03*
X140367987Y-68952011D03*
X140367987Y-69692011D03*
X140367987Y-70432011D03*
X140367987Y-71172011D03*
X140367987Y-71912011D03*
X140367987Y-72652011D03*
D21*
X140267987Y-73752011D03*
X141007987Y-73752011D03*
X141747987Y-73752011D03*
X142487987Y-73752011D03*
X143227987Y-73752011D03*
X143967987Y-73752011D03*
X144707987Y-73752011D03*
X145447987Y-73752011D03*
X146187987Y-73752011D03*
X146927987Y-73752011D03*
X147667987Y-73752011D03*
D20*
X147567987Y-72652011D03*
X147567987Y-71912011D03*
X147567987Y-71172011D03*
X147567987Y-70432011D03*
X147567987Y-69692011D03*
X147567987Y-68952011D03*
X147567987Y-68212011D03*
X147567987Y-67472011D03*
X147567987Y-66732011D03*
X147567987Y-65992011D03*
X147567987Y-64652011D03*
G04 #@! TD*
D11*
G04 #@! TO.C,C8*
X143751700Y-78308200D03*
X140626700Y-78308200D03*
G04 #@! TD*
M02*
